# Blender v2.64 (sub 0) OBJ File: 'human2pose.blend'
# www.blender.org
o Cube.001_Cube.003
v 0.250000 0.125173 1.502167
v 0.250000 0.125173 0.752167
v -0.250000 0.125173 0.752167
v -0.250000 0.125173 1.502167
v 0.250000 -0.124827 1.502167
v 0.250000 -0.124827 0.752167
v -0.250000 -0.124827 0.752167
v -0.250000 -0.124827 1.502167
v 0.275000 0.275173 2.027167
v 0.275000 0.275173 1.477167
v -0.275000 0.275173 1.477167
v -0.275000 0.275173 2.027167
v 0.275000 -0.274827 2.027167
v 0.275000 -0.274827 1.477167
v -0.275000 -0.274827 1.477167
v -0.275000 -0.274827 2.027167
v -0.000000 0.125173 0.752167
v -0.000000 0.125173 0.002167
v -0.250000 0.125173 0.002167
v -0.250000 0.125173 0.752167
v 0.000000 -0.124827 0.752167
v -0.000000 -0.124827 0.002167
v -0.250000 -0.124827 0.002167
v -0.250000 -0.124827 0.752167
v 0.250000 0.125173 0.752167
v 0.250000 0.125173 0.002167
v -0.000000 0.125173 0.002167
v 0.000000 0.125173 0.752167
v 0.250000 -0.124827 0.752167
v 0.250000 -0.124827 0.002167
v -0.000000 -0.124827 0.002167
v 0.000000 -0.124827 0.752167
v 0.500000 0.125173 1.502167
v 0.500000 0.125173 0.752167
v 0.250000 0.125173 0.752167
v 0.250000 0.125173 1.502167
v 0.500000 -0.124827 1.502167
v 0.500000 -0.124827 0.752167
v 0.250000 -0.124827 0.752167
v 0.250000 -0.124827 1.502167
v -0.250000 0.125173 1.502167
v -0.250000 0.125173 0.752167
v -0.500000 0.125173 0.752167
v -0.500000 0.125173 1.502167
v -0.250000 -0.124827 1.502167
v -0.250000 -0.124827 0.752167
v -0.500000 -0.124827 0.752167
v -0.500000 -0.124827 1.502167
v 0.250000 0.250173 2.002167
v 0.250000 0.250173 1.502167
v -0.250000 0.250173 1.502167
v -0.250000 0.250173 2.002167
v 0.250000 -0.249827 2.002167
v 0.250000 -0.249827 1.502167
v -0.250000 -0.249827 1.502167
v -0.250000 -0.249827 2.002167
vt 0.500000 0.375000
vt 0.500000 0.000000
vt 0.625000 0.000000
vt 0.625000 0.375000
vt 0.437500 0.375000
vt 0.312500 0.375000
vt 0.312500 0.000000
vt 0.437500 0.000000
vt 0.562500 0.500000
vt 0.562500 0.375000
vt 0.437500 0.500000
vt 0.250000 0.000000
vt 0.250000 0.375000
vt 0.312500 0.500000
vt 0.875000 0.750000
vt 0.875000 0.500000
vt 1.000000 0.500000
vt 1.000000 0.750000
vt 0.750000 0.750000
vt 0.625000 0.750000
vt 0.625000 0.500000
vt 0.750000 0.500000
vt 0.875000 1.000000
vt 0.750000 1.000000
vt 0.500000 0.500000
vt 0.500000 0.750000
vt 0.625000 1.000000
vt 0.187500 0.375000
vt 0.187500 0.000000
vt 0.125000 0.375000
vt 0.062500 0.375000
vt 0.062500 0.000000
vt 0.125000 0.000000
vt 0.125000 0.500000
vt 0.187500 0.500000
vt 0.000000 0.000000
vt 0.000000 0.375000
vt 0.062500 0.500000
vt 0.875000 0.375000
vt 0.875000 0.000000
vt 0.812500 0.000000
vt 0.812500 0.375000
vt 0.687500 0.375000
vt 0.750000 0.375000
vt 0.750000 0.000000
vt 0.687500 0.000000
vt 0.812500 0.500000
vt 0.687500 0.500000
vt 0.375000 0.750000
vt 0.375000 0.500000
vt 0.250000 0.750000
vt 0.125000 0.750000
vt 0.250000 0.500000
vt 0.375000 1.000000
vt 0.250000 1.000000
vt 0.000000 0.500000
vt 0.000000 0.750000
vt 0.125000 1.000000
vn -0.000000 1.000000 -0.000000
vn 0.000000 -1.000000 0.000000
vn 1.000000 -0.000000 -0.000000
vn -0.000000 0.000000 -1.000000
vn -1.000000 0.000000 0.000000
vn 0.000000 -0.000000 1.000000
vn -0.000001 0.000000 -1.000000
vn 0.000001 -0.000000 1.000000
s off
f 1/1/1 2/2/1 3/3/1
f 1/1/1 3/3/1 4/4/1
f 5/5/2 8/6/2 7/7/2
f 5/5/2 7/7/2 6/8/2
f 1/1/3 5/5/3 6/8/3
f 1/1/3 6/8/3 2/2/3
f 2/9/4 6/10/4 7/5/4
f 2/9/4 7/5/4 3/11/4
f 3/12/5 7/7/5 8/6/5
f 3/12/5 8/6/5 4/13/5
f 5/14/6 1/6/6 4/5/6
f 5/14/6 4/5/6 8/11/6
f 9/15/1 10/16/1 11/17/1
f 9/15/1 11/17/1 12/18/1
f 13/19/2 16/20/2 15/21/2
f 13/19/2 15/21/2 14/22/2
f 9/15/3 13/19/3 14/22/3
f 9/15/3 14/22/3 10/16/3
f 10/15/4 14/23/4 15/24/4
f 10/15/4 15/24/4 11/19/4
f 11/25/5 15/21/5 16/20/5
f 11/25/5 16/20/5 12/26/5
f 13/19/6 9/24/6 12/27/6
f 13/19/6 12/27/6 16/20/6
f 17/28/1 18/29/1 19/12/1
f 17/28/1 19/12/1 20/13/1
f 21/30/2 24/31/2 23/32/2
f 21/30/2 23/32/2 22/33/2
f 17/28/3 21/30/3 22/33/3
f 17/28/3 22/33/3 18/29/3
f 18/30/7 22/34/7 23/35/7
f 18/30/7 23/35/7 19/28/7
f 19/36/5 23/32/5 24/31/5
f 19/36/5 24/31/5 20/37/5
f 21/30/8 17/34/8 20/38/8
f 21/30/8 20/38/8 24/31/8
f 25/13/1 26/12/1 27/29/1
f 25/13/1 27/29/1 28/28/1
f 29/31/2 32/30/2 31/33/2
f 29/31/2 31/33/2 30/32/2
f 25/37/3 29/31/3 30/32/3
f 25/37/3 30/32/3 26/36/3
f 26/28/7 30/35/7 31/34/7
f 26/28/7 31/34/7 27/30/7
f 27/29/5 31/33/5 32/30/5
f 27/29/5 32/30/5 28/28/5
f 29/31/8 25/38/8 28/34/8
f 29/31/8 28/34/8 32/30/8
f 33/39/1 34/40/1 35/41/1
f 33/39/1 35/41/1 36/42/1
f 37/43/2 40/44/2 39/45/2
f 37/43/2 39/45/2 38/46/2
f 33/4/3 37/43/3 38/46/3
f 33/4/3 38/46/3 34/3/3
f 34/22/7 38/44/7 39/42/7
f 34/22/7 39/42/7 35/47/7
f 35/41/5 39/45/5 40/44/5
f 35/41/5 40/44/5 36/42/5
f 37/48/8 33/43/8 36/44/8
f 37/48/8 36/44/8 40/22/8
f 41/42/1 42/41/1 43/40/1
f 41/42/1 43/40/1 44/39/1
f 45/44/2 48/43/2 47/46/2
f 45/44/2 47/46/2 46/45/2
f 41/42/3 45/44/3 46/45/3
f 41/42/3 46/45/3 42/41/3
f 42/47/7 46/42/7 47/44/7
f 42/47/7 47/44/7 43/22/7
f 43/3/5 47/46/5 48/43/5
f 43/3/5 48/43/5 44/4/5
f 45/22/8 41/44/8 44/43/8
f 45/22/8 44/43/8 48/48/8
f 49/49/1 50/50/1 51/25/1
f 49/49/1 51/25/1 52/26/1
f 53/51/2 56/52/2 55/34/2
f 53/51/2 55/34/2 54/53/2
f 49/49/3 53/51/3 54/53/3
f 49/49/3 54/53/3 50/50/3
f 50/49/4 54/54/4 55/55/4
f 50/49/4 55/55/4 51/51/4
f 51/56/5 55/34/5 56/52/5
f 51/56/5 56/52/5 52/57/5
f 53/51/6 49/55/6 52/58/6
f 53/51/6 52/58/6 56/52/6
